<svg xmlns="http://www.w3.org/2000/svg" viewBox="0 0 120 120" role="img" aria-label="AUTO MOTO EXPERT – ikona">
  <title>AUTO MOTO EXPERT</title>

  <!-- Tło -->
  <rect x="0" y="0" width="120" height="120" rx="22" fill="#2c3e50"/>

  <!-- Karoseria samochodu -->
  <path d="
    M 12 84
    L 12 68 Q 12 64 16 64
    L 26 64
    L 34 48
    L 82 48
    L 90 64
    L 104 64 Q 108 64 108 68
    L 108 84
    L 98 84 A 10 8 0 0 1 78 84
    L 42 84 A 10 8 0 0 1 22 84
    Z
  " fill="white"/>

  <!-- Szyby -->
  <path d="M 37 64 L 43 51 L 77 51 L 83 64 Z" fill="#1a252f" opacity="0.3"/>

  <!-- Koło lewe -->
  <circle cx="32" cy="88" r="13" fill="#1a252f"/>
  <circle cx="32" cy="88" r="7"  fill="#7f8c8d"/>
  <circle cx="32" cy="88" r="3"  fill="#1a252f"/>

  <!-- Koło prawe -->
  <circle cx="88" cy="88" r="13" fill="#1a252f"/>
  <circle cx="88" cy="88" r="7"  fill="#7f8c8d"/>
  <circle cx="88" cy="88" r="3"  fill="#1a252f"/>

  <!-- Lupa -->
  <circle cx="86" cy="32" r="16" fill="rgba(231,76,60,0.15)" stroke="#e74c3c" stroke-width="3.5"/>
  <line x1="86" y1="24" x2="86" y2="40" stroke="#e74c3c" stroke-width="1.5" opacity="0.7"/>
  <line x1="78" y1="32" x2="94" y2="32" stroke="#e74c3c" stroke-width="1.5" opacity="0.7"/>
  <line x1="97" y1="44" x2="108" y2="56" stroke="#e74c3c" stroke-width="4" stroke-linecap="round"/>
</svg>
